<?xml version="1.0" encoding="UTF-8" standalone="no"?>
<svg
   width="1140.000000pt"
   height="1039.000000pt"
   viewBox="0 0 1140.000000 1039.000000"
   version="1.1"
   id="svg16696"
   sodipodi:docname="Logo9.svg"
   inkscape:version="1.2 (dc2aedaf03, 2022-05-15)"
   inkscape:export-filename="Logo99.png"
   inkscape:export-xdpi="96"
   inkscape:export-ydpi="96"
   xmlns:inkscape="http://www.inkscape.org/namespaces/inkscape"
   xmlns:sodipodi="http://sodipodi.sourceforge.net/DTD/sodipodi-0.dtd"
   xmlns:xlink="http://www.w3.org/1999/xlink"
   xmlns="http://www.w3.org/2000/svg"
   xmlns:svg="http://www.w3.org/2000/svg">
  <defs
     id="defs16700">
    <linearGradient
       inkscape:collect="always"
       id="linearGradient31117">
      <stop
         style="stop-color:#000000;stop-opacity:1;"
         offset="0"
         id="stop31113" />
      <stop
         style="stop-color:#000000;stop-opacity:0;"
         offset="1"
         id="stop31115" />
    </linearGradient>
    <linearGradient
       inkscape:collect="always"
       id="linearGradient31109">
      <stop
         style="stop-color:#333333;stop-opacity:1;"
         offset="0"
         id="stop31105" />
      <stop
         style="stop-color:#333333;stop-opacity:0;"
         offset="1"
         id="stop31107" />
    </linearGradient>
    <linearGradient
       inkscape:collect="always"
       id="linearGradient31097">
      <stop
         style="stop-color:#333333;stop-opacity:1;"
         offset="0"
         id="stop31093" />
      <stop
         style="stop-color:#333333;stop-opacity:0;"
         offset="1"
         id="stop31095" />
    </linearGradient>
    <linearGradient
       inkscape:collect="always"
       id="linearGradient31089">
      <stop
         style="stop-color:#ff00ff;stop-opacity:1;"
         offset="0"
         id="stop31085" />
      <stop
         style="stop-color:#ff00ff;stop-opacity:0;"
         offset="1"
         id="stop31087" />
    </linearGradient>
    <linearGradient
       inkscape:collect="always"
       id="linearGradient31081">
      <stop
         style="stop-color:#0000ff;stop-opacity:1;"
         offset="0"
         id="stop31077" />
      <stop
         style="stop-color:#0000ff;stop-opacity:0;"
         offset="1"
         id="stop31079" />
    </linearGradient>
    <linearGradient
       inkscape:collect="always"
       id="linearGradient31075">
      <stop
         style="stop-color:#000000;stop-opacity:1;"
         offset="0.07012196"
         id="stop31071" />
      <stop
         style="stop-color:#000000;stop-opacity:0;"
         offset="0.93902439"
         id="stop31073" />
    </linearGradient>
    <linearGradient
       inkscape:collect="always"
       id="linearGradient30310">
      <stop
         style="stop-color:#000000;stop-opacity:1;"
         offset="0"
         id="stop30306" />
      <stop
         style="stop-color:#000000;stop-opacity:0;"
         offset="1"
         id="stop30308" />
    </linearGradient>
    <radialGradient
       inkscape:collect="always"
       xlink:href="#linearGradient30310"
       id="radialGradient30312"
       cx="214.62393"
       cy="815.84613"
       fx="214.62393"
       fy="815.84613"
       r="81.72219"
       gradientTransform="matrix(4.7191739,0,0,2.5141928,-511.72344,-1821.1846)"
       gradientUnits="userSpaceOnUse" />
    <radialGradient
       inkscape:collect="always"
       xlink:href="#linearGradient31075"
       id="radialGradient31069"
       cx="214.4969"
       cy="815.84753"
       fx="214.4969"
       fy="815.84753"
       r="82.232567"
       gradientTransform="matrix(4.7191739,0,0,2.5189652,-511.72344,-1825.0754)"
       gradientUnits="userSpaceOnUse" />
    <radialGradient
       inkscape:collect="always"
       xlink:href="#linearGradient31081"
       id="radialGradient31083"
       cx="242.55257"
       cy="938.29185"
       fx="242.55257"
       fy="938.29185"
       r="80.75913"
       gradientTransform="matrix(4.7191739,0,0,2.5366268,-511.72344,-1607.4625)"
       gradientUnits="userSpaceOnUse" />
    <radialGradient
       inkscape:collect="always"
       xlink:href="#linearGradient31089"
       id="radialGradient31091"
       cx="227.35004"
       cy="878.03205"
       fx="227.35004"
       fy="878.03205"
       r="113.43426"
       gradientTransform="matrix(4.7191739,0,0,2.1338074,-511.72344,-1367.9616)"
       gradientUnits="userSpaceOnUse" />
    <linearGradient
       inkscape:collect="always"
       xlink:href="#linearGradient31097"
       id="linearGradient31103"
       x1="261.88681"
       y1="833.03741"
       x2="337.76782"
       y2="833.03741"
       gradientUnits="userSpaceOnUse"
       gradientTransform="matrix(4.7191739,0,0,4.4315465,-511.72344,-3385.4502)" />
    <radialGradient
       inkscape:collect="always"
       xlink:href="#linearGradient31109"
       id="radialGradient31111"
       cx="154.91446"
       cy="922.67659"
       fx="154.91446"
       fy="922.67659"
       r="37.69677"
       gradientTransform="matrix(4.7191739,0,0,7.2376519,-511.72344,-5974.5779)"
       gradientUnits="userSpaceOnUse" />
    <radialGradient
       inkscape:collect="always"
       xlink:href="#linearGradient31117"
       id="radialGradient31119"
       cx="227.93476"
       cy="984.48446"
       fx="227.93476"
       fy="984.48446"
       r="97.165485"
       gradientTransform="matrix(4.7191739,0,0,0.47531355,-511.72344,509.39967)"
       gradientUnits="userSpaceOnUse" />
  </defs>
  <sodipodi:namedview
     id="namedview16698"
     pagecolor="#505050"
     bordercolor="#eeeeee"
     borderopacity="1"
     inkscape:showpageshadow="0"
     inkscape:pageopacity="0"
     inkscape:pagecheckerboard="0"
     inkscape:deskcolor="#505050"
     inkscape:document-units="pt"
     showgrid="false"
     inkscape:zoom="0.24091992"
     inkscape:cx="448.28173"
     inkscape:cy="606.01049"
     inkscape:window-width="1440"
     inkscape:window-height="829"
     inkscape:window-x="-8"
     inkscape:window-y="-8"
     inkscape:window-maximized="1"
     inkscape:current-layer="layer1" />
  <g
     inkscape:groupmode="layer"
     id="layer1"
     inkscape:label="Layer 1"
     style="display:inline">
    <path
       style="display:inline;fill:url(#radialGradient31119);fill-opacity:1;stroke-width:3.42982"
       d="m 828.67661,933.59207 26.61973,0.91436 29.54143,2.74366 32.78768,3.65801 23.69804,3.65833 23.04876,4.5727 24.02262,6.40172 18.50403,6.70647 9.4142,6.09694 6.168,7.92595 -1.6231,8.84059 -12.0113,8.84027 -20.12714,7.31633 -29.866,7.6212 -38.95569,6.0969 -55.83651,6.0969 -54.53794,2.1338 h -43.50049 l -62.97839,0.3058 -105.82958,-9.1454 -22.07488,-3.9631 H 553.0652 l -20.77636,1.2194 -26.29509,3.9628 -54.21335,5.1826 -44.47439,2.4386 -45.12366,0.3058 -62.97837,-0.9147 -63.303,-4.8775 -55.18716,-7.0116 -28.56753,-6.4017 -25.32119,-7.01122 -16.2315,-9.75531 -5.1941,-8.53546 1.94777,-8.53583 12.66063,-8.23072 20.12706,-8.2307 26.61969,-6.70684 26.2951,-5.48702 26.2951,-3.04844 34.08625,-3.04847 36.35859,-2.74371 34.41091,-1.82899 22.72409,0.30577 31.48917,0.91469 28.56753,-0.91469 z"
       id="path29599" />
    <path
       style="display:inline;fill:url(#radialGradient31083);fill-opacity:1;stroke-width:3.42982"
       d="m 1014.0407,761.65944 -49.34382,21.94882 -62.3291,9.7549 -57.13499,-2.43854 -93.49364,-26.82659 -79.20984,-34.14263 -93.49365,-54.87195 -76.61288,-54.87198 -67.52316,-39.02007 -40.25416,-13.41332 -55.83652,8.53553 -48.04534,32.92347 -28.56753,46.33649 -10.38814,58.52999 14.28374,78.04054 38.95567,62.18834 59.73207,57.31054 74.01578,37.80095 92.19509,23.16826 102.5833,4.87746 90.8966,-7.31635 83.10544,-28.04572 74.01576,-42.67813 63.62765,-52.4334 41.55273,-43.89758 z"
       id="path29532" />
    <path
       style="display:inline;fill:url(#radialGradient31069);fill-opacity:1;stroke:url(#radialGradient30312);stroke-width:3.42982"
       d="m 115.46299,242.81333 c 14.28375,-36.58122 98.03848,-116.45077 98.03848,-116.45077 l 93.49362,-59.139879 93.49365,-32.313595 122.06114,-10.3645 115.56852,10.974385 85.70251,24.997238 69.47095,46.336461 61.03059,65.84638 22.07487,55.48183 10.38812,78.04021 -29.86593,76.82109 -48.04541,40.8491 -37.0079,11.58398 -52.59015,-3.65804 -86.35178,-45.72657 -86.35173,-60.96923 -94.79214,-57.31085 -98.03849,-39.02012 -83.10547,-16.46141 -83.10537,4.26757 z"
       id="path29528" />
    <path
       style="display:inline;fill:#f9f9f9;stroke-width:3.42982"
       d="m 291.7375,156.84704 35.0601,-64.017331 -29.86601,65.541541 130.82618,-40.8491 -129.20304,47.25085 69.79563,32.31359 -72.71728,-28.96003 24.99651,62.49315 -29.86599,-59.74981 -26.94437,48.16547 21.42562,-50.60405 -128.2291,41.1539 126.60594,-46.33645 -73.0419,-35.97163 76.61286,31.70404 -27.59359,-73.772626 z"
       id="path29535" />
    <path
       style="display:inline;fill:url(#radialGradient31111);fill-opacity:1;stroke-width:3.42982"
       d="M 397.24243,976.27021 363.48086,960.41836 329.71929,939.0791 295.9577,914.08186 256.35275,874.4522 l -34.41087,-44.50749 -22.72414,-42.67846 -14.28377,-30.48427 -14.28375,-42.67842 -7.14185,-46.94605 -0.64927,-43.89757 5.84335,-40.23955 14.28374,-35.97161 19.47784,-35.36211 29.86605,-32.31361 38.95563,-28.04571 16.88089,-7.92595 -43.50055,-10.36486 -45.44831,-2.43856 -31.16456,1.21915 L 130.396,443.4014 94.686632,469.0082 76.50737,489.128 64.171381,512.29622 53.133926,540.95184 45.992077,573.875 l -4.54485,41.45903 12.33596,41.45865 16.880812,42.06854 22.07488,44.5075 36.358651,52.4334 28.56746,32.92315 38.30644,37.19109 37.0079,31.09416 51.94092,31.70376 39.60493,20.72965 38.95568,16.46141 z"
       id="path29537" />
    <path
       style="display:inline;fill:url(#radialGradient31091);fill-opacity:1;stroke-width:3.42982"
       d="m 41.447227,615.94359 -8.440442,-37.80066 -7.141849,-51.21396 3.246315,-62.79821 3.895534,-44.50713 14.283813,-59.13991 9.089659,-25.60715 24.671922,-34.75218 35.060111,-21.9491 42.20197,-13.41294 62.32911,-1.21948 70.76948,15.24229 54.53794,20.72937 50.64241,23.77814 49.34386,25.60679 63.62763,41.45897 66.22465,45.72662 83.10544,53.65281 59.08277,31.09418 56.48575,26.21674 65.57539,21.33885 58.43355,10.97441 h 35.70937 17.53006 l 24.67192,-7.31603 14.93303,-4.87751 24.67188,-14.02282 20.7764,-17.07135 16.2315,-24.38766 12.9853,-27.43616 7.7911,-27.4358 5.1941,-32.92352 1.9478,-35.97164 8.4404,37.19107 7.1419,54.872 -0.6493,50.60436 -3.2463,39.02011 -0.6493,9.14539 -12.336,56.70129 -7.7911,34.14263 -14.933,27.43583 -27.269,28.65559 -42.20198,16.46141 -40.25421,5.48738 h -18.82855 l -50.6424,-5.48738 -48.04533,-11.58392 -74.66503,-29.26516 -52.59019,-27.43617 -44.79905,-26.21668 -40.25424,-26.82628 -43.50047,-28.65525 -37.65717,-24.99727 -43.50054,-28.0457 -49.34383,-30.48461 -49.34388,-24.99726 -43.50049,-20.11972 -57.13501,-19.51025 -55.83651,-12.80341 -51.2916,0.60958 -35.06012,4.87779 -31.1645,11.58396 -36.358666,31.09418 -18.179346,28.04572 -11.037441,25.60708 -6.492574,31.0942 z"
       id="path29539" />
    <path
       style="display:inline;fill:url(#linearGradient31103);fill-opacity:1;stroke-width:3.42982"
       d="m 724.16598,32.435484 49.58246,25.004553 40.40058,29.316017 40.40052,36.213606 39.4824,48.28513 31.21862,51.73378 23.873,58.63169 11.93655,57.76955 -1.83643,61.2185 -8.26375,37.0761 -18.36389,44.8358 -23.87302,31.04033 -24.79125,25.0049 -22.95484,15.52013 -26.62764,12.07123 20.20029,6.89791 24.79124,4.31116 29.3822,1.7243 24.79125,0.86217 38.56411,-5.1733 35.80962,-15.52019 28.464,-25.00455 22.9548,-36.21392 14.6911,-40.52474 5.5092,-42.24938 2.7546,-30.17812 -12.8547,-32.76465 -12.8547,-32.76501 -13.773,-30.17815 -18.3638,-31.90249 -20.2003,-31.04033 -28.46402,-34.48928 -33.97315,-35.35144 -32.13681,-28.45351 -40.40051,-29.316005 -37.646,-24.142402 -31.2186,-12.933711 -33.05498,-13.795512 z"
       id="path29541" />
    <path
       style="display:inline;fill:#f9f9f9;stroke-width:3.42982"
       d="m 961.45057,678.74149 c 51.94093,-96.94054 8.44045,2.43889 8.44045,2.43889 l 156.47198,-51.21397 -155.17351,58.53033 132.44931,59.13987 -135.04633,-53.04295 45.44833,122.54768 -51.94098,-119.49923 -45.44828,85.96615 38.30644,-89.62447 -144.13602,48.16544 142.18822,-55.48149 -94.79216,-43.89792 96.09069,40.23955 -58.43351,-170.10323 z"
       id="path29597" />
    <path
       style="display:inline;fill:#f9f9f9;stroke-width:3.42982"
       d="m 155.39263,782.08403 31.81379,-60.05452 -29.54143,62.49342 37.33256,-11.58425 -35.70939,14.63268 59.40741,26.52148 -59.40741,-22.55867 22.72413,63.10302 -26.94431,-61.88354 -14.93302,26.52148 11.03744,-28.04577 -36.68326,10.97444 36.68326,-14.93755 -52.265569,-23.16822 52.265569,19.20543 -31.1645,-86.88082 z"
       id="path29601" />
  </g>
</svg>
